<svg xmlns="http://www.w3.org/2000/svg" width="148" height="34" fill="none" xmlns:v="https://vecta.io/nano"><g clip-path="url(#B)"><path fill-rule="evenodd" d="M55.6092 22.5501c-.6178.6272-1.3599 1.0975-2.2265 1.4111s-1.8317.4704-2.8956.4704c-2.2307 0-3.9638-.6451-5.1993-1.9352s-1.8532-3.0999-1.8532-5.4293c0-2.3114.6177-4.1167 1.8532-5.4158s2.9686-1.9486 5.1993-1.9486c1.8361 0 3.3547.4748 4.5558 1.4245l-1.081 1.5051c-.8752-.6988-2.0334-1.0482-3.4748-1.0482-1.716 0-3.0201.4704-3.9124 1.4111s-1.3384 2.298-1.3384 4.0719c0 1.7919.4461 3.1536 1.3384 4.0854s2.1964 1.3976 3.9124 1.3976c1.6645 0 2.9514-.4569 3.8609-1.3707l1.2612 1.3707zm3.6292-5.4561c0-2.3115.5748-4.1167 1.7245-5.4158s2.7541-1.94862 4.8132-1.94862V11.611c-1.5443 0-2.7197.4704-3.5262 1.4111s-1.2098 2.298-1.2098 4.0719v7.2032h-1.8017V17.094zm16.1642-7.3913c2.2307 0 3.9638.6495 5.1993 1.9486s1.8532 3.1044 1.8532 5.4158v3.2253c0 .3046-.0686.6944-.2059 1.1692s-.4505.9317-.9395 1.3707-1.1969.8153-2.1235 1.1289-2.1878.4704-3.7836.4704-2.8571-.1568-3.7837-.4704-1.6344-.6899-2.1235-1.1289-.8022-.8959-.9394-1.3707-.206-.8646-.206-1.1692c0-1.093.1631-1.9531.4891-2.5802s.7636-1.0975 1.3127-1.4111 1.1969-.5151 1.9433-.6047 1.5486-.1344 2.4066-.1344h6.023c-.2403-1.2901-.7894-2.2756-1.6474-2.9565s-2.0162-1.0214-3.4747-1.0214c-1.4757 0-2.6683.3673-3.5778 1.102l-1.1068-1.4783c1.2184-1.0034 2.7799-1.5051 4.6846-1.5051zm5.2508 7.7407h-5.2508l-2.767.0941c-.6949.0627-1.2269.1926-1.5958.3897s-.6092.4838-.7207.8601-.1673.878-.1673 1.5051c0 .4121.1544.7616.4633 1.0482s.7121.5197 1.2097.6989 1.0596.3091 1.6859.3897 1.257.1209 1.8919.1209 1.2655-.0403 1.8918-.1209 1.1883-.2106 1.6859-.3897.9009-.4122 1.2098-.6989.4633-.6361.4633-1.0482v-2.849zm10.3471-1.2632l1.7245.4166c.5834.1523 1.1111.3763 1.583.6719s.8536.6854 1.1454 1.1692.4375 1.102.4375 1.8545c0 1.2902-.4547 2.3025-1.3642 3.0372s-2.1449 1.102-3.7064 1.102c-1.5787 0-2.8227-.3674-3.7322-1.102s-1.3641-1.747-1.3641-3.0372h1.8017c0 .4659.0987.8467.296 1.1423s.4547.5286.7722.6988.6735.2867 1.0681.3494.7808.0941 1.1583.0941.7593-.0313 1.1454-.0941.7379-.1791 1.0553-.3494.5791-.4031.785-.6988.3089-.6764.3089-1.1423c0-.3225-.0472-.5913-.1415-.8063s-.2703-.4076-.5277-.5779-.6134-.3225-1.0682-.4569l-1.7631-.4435-1.7245-.43c-.5834-.1613-1.1111-.3897-1.583-.6854s-.8537-.6853-1.1454-1.1691-.4375-1.111-.4375-1.8815c0-1.2901.4547-2.3025 1.3641-3.0371s2.1535-1.102 3.7322-1.102c1.5615 0 2.797.3673 3.7064 1.102s1.3642 1.747 1.3642 3.0371h-1.776c0-.4658-.1029-.8466-.3089-1.1423s-.4675-.5241-.785-.6853-.6692-.2733-1.0553-.336-.7679-.0941-1.1454-.0941-.7636.0314-1.1583.0941-.7507.1747-1.0681.336-.5749.3897-.7722.6853-.296.6765-.296 1.1423c0 .3046.0386.5645.1158.7795s.2403.4076.4891.5778.6005.336 1.0553.4973 1.0596.3225 1.8146.4838zm12.7665 0l1.725.4166c.583.1523 1.111.3763 1.583.6719s.853.6854 1.145 1.1692.438 1.102.438 1.8545c0 1.2902-.455 2.3025-1.365 3.0372s-2.145 1.102-3.706 1.102c-1.579 0-2.823-.3674-3.7323-1.102s-1.3641-1.747-1.3641-3.0372h1.8014c0 .4659.099.8467.296 1.1423s.455.5286.772.6988.674.2867 1.069.3494.78.0941 1.158.0941.759-.0313 1.145-.0941.738-.1791 1.056-.3494.579-.4031.785-.6988.309-.6764.309-1.1423c0-.3225-.048-.5913-.142-.8063s-.27-.4076-.528-.5779-.613-.3225-1.068-.4569l-1.763-.4435-1.725-.43c-.583-.1613-1.111-.3897-1.582-.6854s-.8542-.6853-1.1459-1.1691-.4375-1.111-.4375-1.8815c0-1.2901.4547-2.3025 1.3641-3.0371s2.1533-1.102 3.7323-1.102c1.561 0 2.797.3673 3.706 1.102s1.365 1.747 1.365 3.0371h-1.776c0-.4658-.103-.8466-.309-1.1423s-.468-.5241-.785-.6853-.67-.2733-1.056-.336-.768-.0941-1.145-.0941-.764.0314-1.158.0941-.751.1747-1.069.336-.574.3897-.772.6853-.296.6765-.296 1.1423c0 .3046.039.5645.116.7795s.24.4076.489.5778.601.336 1.055.4973 1.06.3225 1.815.4838zm13.873 8.2514c-1.818 0-3.234-.6451-4.246-1.9352s-1.519-3.0999-1.519-5.4293V9.99835h1.802v7.06875c0 .5197.043 1.093.128 1.7202s.271 1.2229.554 1.7873.686 1.0348 1.209 1.4111 1.215.5644 2.072.5644 1.549-.1881 2.072-.5644.927-.8466 1.21-1.4111.468-1.1602.554-1.7873.128-1.2005.128-1.7202V9.99835h1.802v7.06875c0 2.3294-.506 4.1392-1.519 5.4293s-2.428 1.9352-4.247 1.9352zm12.021-.1344h-1.802V3.35962h1.802V24.2972zm11.093-14.5945c2.231 0 3.964.6495 5.2 1.9486s1.853 3.1044 1.853 5.4158v3.2253c0 .3046-.069.6944-.206 1.1692s-.451.9317-.94 1.3707-1.197.8153-2.123 1.1289-2.188.4704-3.784.4704-2.857-.1568-3.783-.4704-1.635-.6899-2.124-1.1289-.802-.8959-.939-1.3707-.206-.8646-.206-1.1692c0-1.093.163-1.9531.489-2.5802s.763-1.0975 1.312-1.4111 1.197-.5151 1.944-.6047 1.548-.1344 2.406-.1344h6.023c-.24-1.2901-.789-2.2756-1.647-2.9565s-2.016-1.0214-3.475-1.0214c-1.475 0-2.668.3673-3.578 1.102l-1.106-1.4783c1.218-1.0034 2.78-1.5051 4.684-1.5051zm5.251 7.7407h-5.251l-2.767.0941c-.695.0627-1.227.1926-1.596.3897s-.609.4838-.72.8601-.168.878-.168 1.5051c0 .4121.155.7616.464 1.0482s.712.5197 1.209.6989 1.06.3091 1.686.3897 1.257.1209 1.892.1209 1.266-.0403 1.892-.1209 1.188-.2106 1.686-.3897.901-.4122 1.21-.6989.463-.6361.463-1.0482v-2.849z" fill="#fff"/><mask id="A" maskUnits="userSpaceOnUse" x="0" y="0" width="33" height="34" mask-type="alpha"><path d="M16.1553.0000964009L16.1685 0c5.0884 0 9.0416 1.4816 11.8597 4.44484s4.2273 7.08106 4.2273 12.35356c0 5.3134-1.4091 9.4415-4.2273 12.3843s-6.7713 4.4141-11.8597 4.4141h-.0408-.0407c-5.0884 0-9.0416-1.4713-11.85977-4.4141S0 22.1118 0 16.7984c0-5.2725 1.40906-9.39032 4.22723-12.35356S10.9986 0 16.087 0l.0683.0000964009z" fill="#fff"/></mask><g mask="url(#A)"><path d="M16.4051 1.21445l.0134-.00009c5.167 0 9.1813 1.44582 12.043 4.33752s4.2926 6.91012 4.2926 12.05532c0 5.1851-1.4308 9.2135-4.2926 12.0853s-6.876 4.3076-12.043 4.3076c-.0139 0-.0277 0-.0415-.0001l-.0414.0001c-5.167 0-9.18129-1.4359-12.04302-4.3076S0 22.7923 0 17.6072C0 12.462 1.43085 8.44358 4.29258 5.55188S11.1686 1.21436 16.3356 1.21436l.0695.00009z" fill="#56d3a2"/><path d="M22.8438 28.0532v5.3755h.9652v-5.3755h-.9652z" fill="#0a0b0c"/><path d="M23.3262 28.8932c-.9773 0-1.7696-.8273-1.7696-1.8479s.7923-1.8478 1.7696-1.8478 1.7696.8273 1.7696 1.8478-.7923 1.8479-1.7696 1.8479zm0-1.1087c.3909 0 .7078-.331.7078-.7392s-.3169-.7391-.7078-.7391-.7078.3309-.7078.7391.3169.7392.7078.7392zm-3.9604-3.5659l-.0123 9.2095.9652.0014.0117-8.7299 1.5486-1.3107v-6.4226h-.9652v5.9421l-1.548 1.3102z" fill="#0a0b0c"/><path d="M21.3965 17.8062c-.9773 0-1.7695-.8273-1.7695-1.8478s.7922-1.8478 1.7695-1.8478 1.7696.8273 1.7696 1.8478-.7923 1.8478-1.7696 1.8478zm0-1.1086c.3909 0 .7078-.331.7078-.7392s-.3169-.7391-.7078-.7391-.7078.3309-.7078.7391.3169.7392.7078.7392zm-5.6309 1.4447v15.7905h.9652V18.1423h-.9652z" fill="#0a0b0c"/><path d="M16.2481 18.4781c-.9773 0-1.7696-.8273-1.7696-1.8478s.7923-1.8478 1.7696-1.8478 1.7695.8273 1.7695 1.8478-.7922 1.8478-1.7695 1.8478zm0-1.1087c.3909 0 .7078-.3309.7078-.7391s-.3169-.7391-.7078-.7391-.7078.3309-.7078.7391.3169.7391.7078.7391zm-4.0697 16.0601l.9652-.0014-.0122-9.2095-1.548-1.3102v-5.9421h-.9652v6.4226l1.5486 1.3107.0116 8.7299z" fill="#0a0b0c"/><path d="M11.1006 17.8062c-.9773 0-1.76955-.8273-1.76955-1.8478s.79225-1.8478 1.76955-1.8478 1.7696.8273 1.7696 1.8478-.7923 1.8478-1.7696 1.8478zm0-1.1086c.3909 0 .7078-.331.7078-.7392s-.3169-.7391-.7078-.7391-.7078.3309-.7078.7391.3169.7392.7078.7392zM8.6875 28.0532v5.3755h.96522v-5.3755H8.6875z" fill="#0a0b0c"/><path d="M9.16996 28.8932c-.97731 0-1.76957-.8273-1.76957-1.8479s.79226-1.8478 1.76957-1.8478 1.76954.8273 1.76954 1.8478-.7922 1.8479-1.76954 1.8479zm0-1.1087c.39092 0 .70782-.331.70782-.7392s-.3169-.7391-.70782-.7391-.70783.3309-.70783.7391.3169.7392.70783.7392z" fill="#0a0b0c"/></g></g><defs><clipPath id="B"><path fill="#fff" d="M0 0h148v34H0z"/></clipPath></defs></svg>