<?xml version="1.0" standalone="no"?>
<!DOCTYPE svg PUBLIC "-//W3C//DTD SVG 20010904//EN"
 "http://www.w3.org/TR/2001/REC-SVG-20010904/DTD/svg10.dtd">
<svg version="1.0" xmlns="http://www.w3.org/2000/svg"
 width="260.000000pt" height="260.000000pt" viewBox="0 0 260.000000 260.000000"
 preserveAspectRatio="xMidYMid meet">
<metadata>
Created by potrace 1.14, written by Peter Selinger 2001-2017
</metadata>
<g transform="translate(0.000000,260.000000) scale(0.100000,-0.100000)"
fill="#000000" stroke="none">
<path d="M1091 2508 c-195 -22 -402 -94 -540 -188 -233 -158 -364 -379 -428
-723 -24 -131 -24 -464 1 -602 32 -179 101 -359 186 -485 45 -66 165 -182 240
-231 61 -41 154 -89 170 -89 6 0 10 49 10 134 l0 134 -34 21 c-104 65 -76 230
44 256 42 9 114 -25 134 -64 34 -66 9 -167 -49 -193 l-25 -11 0 -157 0 -157
60 -16 c74 -21 211 -44 313 -52 l77 -7 0 576 0 576 -45 43 c-41 40 -45 47 -45
93 0 83 55 144 130 144 128 0 177 -168 73 -250 l-28 -22 -5 -580 -5 -580 95 7
c111 8 233 28 308 50 l52 16 0 157 -1 157 -32 20 c-42 26 -71 85 -63 129 15
79 89 136 158 121 67 -15 117 -92 103 -161 -7 -38 -59 -104 -81 -104 -11 0
-14 -28 -14 -146 l0 -145 23 6 c40 12 150 76 217 125 256 191 387 484 407 910
17 395 -83 736 -281 957 -232 258 -658 383 -1125 331z m-125 -964 c44 -21 79
-91 71 -141 -8 -45 -31 -81 -68 -101 l-29 -17 1 -190 0 -190 60 -48 59 -49 0
-344 0 -344 -34 0 -33 0 -8 329 -7 329 -54 43 -53 44 -1 212 0 211 -34 20
c-47 28 -74 97 -57 151 25 84 108 122 187 85z m764 1 c48 -25 70 -62 70 -117
0 -58 -20 -98 -61 -122 l-29 -17 0 -209 0 -208 -60 -52 -60 -52 0 -324 0 -324
-35 0 -35 0 0 344 0 344 60 52 60 52 0 186 0 187 -30 17 c-148 84 -32 321 120
243z"/>
<path d="M882 1473 c-7 -3 -18 -16 -23 -30 -21 -57 51 -100 85 -51 21 30 20
44 -4 68 -20 20 -33 23 -58 13z"/>
<path d="M1642 1464 c-40 -28 -16 -94 34 -94 44 0 61 62 26 93 -23 21 -32 21
-60 1z"/>
<path d="M1262 1414 c-24 -17 -30 -62 -10 -82 30 -30 88 -2 88 43 0 20 -32 55
-50 55 -3 0 -16 -7 -28 -16z"/>
<path d="M725 630 c-22 -24 -14 -65 16 -80 45 -25 94 51 57 88 -18 18 -53 14
-73 -8z"/>
<path d="M1776 627 c-20 -29 -10 -66 21 -78 50 -19 88 31 59 76 -21 32 -60 33
-80 2z"/>
</g>
</svg>
