<svg xmlns="http://www.w3.org/2000/svg" xmlns:xlink="http://www.w3.org/1999/xlink" width="348" height="113" viewBox="0 0 348 113">
  <defs>
    <path id="crassula-logo-horizontal-normal-a" d="M33.0439484,0.000186379583 C33.0529365,6.21699433e-05 33.0619173,0 33.0708906,0 C43.478566,0 51.564408,2.86449111 57.328659,8.59355927 C63.09291,14.3226274 65.9749923,22.2839372 65.9749923,32.4777275 C65.9749923,42.7505393 63.09291,50.7316042 57.328659,56.4211616 C51.564408,62.1107189 43.478566,64.9554549 33.0708906,64.9554549 C33.043078,64.9554549 33.0152798,64.9554332 32.9874962,64.9553898 C32.9597125,64.9554332 32.9319143,64.9554549 32.9041017,64.9554549 C22.4964263,64.9554549 14.4105843,62.1107189 8.6463333,56.4211616 C2.88208228,50.7316042 -7.38964445e-13,42.7505393 -7.38964445e-13,32.4777275 C-7.38964445e-13,22.2839372 2.88208228,14.3226274 8.6463333,8.59355927 C14.4105843,2.86449111 22.4964263,0 32.9041017,0 C32.9507612,0 32.9973768,6.21265242e-05 33.0439484,0.000186379583 Z"/>
  </defs>
  <g fill="none" fill-rule="evenodd" transform="translate(24 24)">
    <path fill="#000" d="M112.688824,43.7686012 C111.433802,44.9776846 109.926054,45.8844836 108.165537,46.4890253 C106.405019,47.093567 104.444076,47.3958333 102.282648,47.3958333 C97.750622,47.3958333 94.2296393,46.1522233 91.7195943,43.664966 C89.2095492,41.1777087 87.9545455,37.6886917 87.9545455,33.1978104 C87.9545455,28.7414743 89.2095492,25.2610935 91.7195943,22.7565636 C94.2296393,20.2520336 97.750622,18.9997874 102.282648,18.9997874 C106.012854,18.9997874 109.098071,19.9152226 111.538393,21.7461203 L109.342114,24.647906 C107.564166,23.3006416 105.211034,22.6270196 102.282648,22.6270196 C98.7964741,22.6270196 96.1470218,23.5338185 94.3342115,25.3474437 C92.5214011,27.1610688 91.6150096,29.7778315 91.6150096,33.1978104 C91.6150096,36.6523344 92.5214011,39.2777334 94.3342115,41.0740859 C96.1470218,42.8704384 98.7964741,43.7686012 102.282648,43.7686012 C105.664236,43.7686012 108.278827,42.8877108 110.126499,41.1259035 L112.688824,43.7686012 Z M120.062045,33.249628 C120.062045,28.7932919 121.229895,25.3129111 123.565632,22.8083812 C125.901368,20.3038512 129.160892,19.051605 133.3443,19.051605 L133.3443,22.6788372 C130.206744,22.6788372 127.818751,23.5856361 126.180249,25.3992613 C124.541747,27.2128864 123.722509,29.8296491 123.722509,33.249628 L123.722509,47.1367453 L120.062045,47.1367453 L120.062045,33.249628 Z M152.901637,18.9997874 C157.433662,18.9997874 160.954645,20.2520336 163.46469,22.7565636 C165.974735,25.2610935 167.229739,28.7414743 167.229739,33.1978104 L167.229739,39.4159226 C167.229739,40.0031917 167.090294,40.7545394 166.8114,41.6699883 C166.532506,42.5854372 165.896289,43.4663276 164.90273,44.312686 C163.90917,45.1590444 162.471145,45.8844836 160.588611,46.4890253 C158.706077,47.093567 156.143778,47.3958333 152.901637,47.3958333 C149.659495,47.3958333 147.097196,47.093567 145.214662,46.4890253 C143.332128,45.8844836 141.894103,45.1590444 140.900544,44.312686 C139.906984,43.4663276 139.270767,42.5854372 138.991873,41.6699883 C138.712979,40.7545394 138.573534,40.0031917 138.573534,39.4159226 C138.573534,37.3086629 138.904716,35.6505162 139.567089,34.4414328 C140.229462,33.2323494 141.118423,32.3255504 142.233998,31.7210087 C143.349574,31.116467 144.665585,30.7278389 146.18207,30.5551127 C147.698556,30.3823865 149.328318,30.2960247 151.071405,30.2960247 L163.307813,30.2960247 C162.819749,27.8087673 161.70419,25.9088076 159.961103,24.5960884 C158.218016,23.2833693 155.864884,22.6270196 152.901637,22.6270196 C149.903527,22.6270196 147.480673,23.3351864 145.633001,24.7515412 L143.38443,21.9015731 C145.859613,19.9670396 149.031984,18.9997874 152.901637,18.9997874 Z M163.569275,33.9232568 L152.901637,33.9232568 C150.5659,33.9232568 148.69211,33.9837101 147.28021,34.1046184 C145.868309,34.2255268 144.787612,34.475976 144.038084,34.8559736 C143.288557,35.2359713 142.8005,35.7886868 142.573899,36.5141369 C142.347297,37.239587 142.233998,38.2068392 142.233998,39.4159226 C142.233998,40.2104632 142.547749,40.8840852 143.175261,41.4368091 C143.802772,41.989533 144.62201,42.4386143 145.633001,42.7840668 C146.643991,43.1295192 147.785696,43.3799684 149.058149,43.535422 C150.330603,43.6908756 151.611752,43.7686012 152.901637,43.7686012 C154.191521,43.7686012 155.472671,43.6908756 156.745124,43.535422 C158.017577,43.3799684 159.159282,43.1295192 160.170273,42.7840668 C161.181263,42.4386143 162.000501,41.989533 162.628013,41.4368091 C163.255524,40.8840852 163.569275,40.2104632 163.569275,39.4159226 L163.569275,33.9232568 Z M184.590797,31.4878295 C185.741234,31.7296462 186.909085,31.9973678 188.094384,32.2910023 C189.279683,32.5846369 190.351666,33.0164459 191.310363,33.5864424 C192.269061,34.1564389 193.044723,34.9077866 193.637373,35.8405081 C194.230022,36.7732296 194.526342,37.9650225 194.526342,39.4159226 C194.526342,41.90318 193.60252,43.8549568 191.754848,45.2713116 C189.907176,46.6876665 187.397169,47.3958333 184.224751,47.3958333 C181.017471,47.3958333 178.490033,46.6876665 176.642361,45.2713116 C174.794689,43.8549568 173.870866,41.90318 173.870866,39.4159226 L177.531331,39.4159226 C177.531331,40.3140989 177.731783,41.0481742 178.132693,41.6181707 C178.533602,42.1881672 179.056521,42.6372486 179.701463,42.9654284 C180.346405,43.2936081 181.069775,43.5181488 181.871595,43.6390572 C182.673415,43.7599655 183.457792,43.8204188 184.224751,43.8204188 C184.991709,43.8204188 185.767371,43.7599655 186.55176,43.6390572 C187.336149,43.5181488 188.050804,43.2936081 188.695746,42.9654284 C189.340688,42.6372486 189.872322,42.1881672 190.290663,41.6181707 C190.709003,41.0481742 190.918171,40.3140989 190.918171,39.4159226 C190.918171,38.7941083 190.822302,38.2759374 190.630563,37.8613946 C190.438823,37.4468517 190.081496,37.0754959 189.55857,36.7473161 C189.035644,36.4191363 188.312274,36.1255062 187.388437,35.8664169 C186.464601,35.6073276 185.270605,35.3223336 183.806412,35.0114264 C182.655975,34.7696098 181.488124,34.493252 180.302825,34.1823448 C179.117526,33.8714376 178.045543,33.4309924 177.086846,32.860996 C176.128148,32.2909995 175.352486,31.5396518 174.759836,30.6069303 C174.167187,29.6742088 173.870866,28.4651435 173.870866,26.9796981 C173.870866,24.4924408 174.794689,22.540664 176.642361,21.1243091 C178.490033,19.7079542 181.017471,18.9997874 184.224751,18.9997874 C187.397169,18.9997874 189.907176,19.7079542 191.754848,21.1243091 C193.60252,22.540664 194.526342,24.4924408 194.526342,26.9796981 L190.918171,26.9796981 C190.918171,26.0815219 190.709003,25.3474465 190.290663,24.77745 C189.872322,24.2074536 189.340688,23.7670084 188.695746,23.4561012 C188.050804,23.145194 187.336149,22.9292895 186.55176,22.8083812 C185.767371,22.6874728 184.991709,22.6270196 184.224751,22.6270196 C183.457792,22.6270196 182.673415,22.6874728 181.871595,22.8083812 C181.069775,22.9292895 180.346405,23.145194 179.701463,23.4561012 C179.056521,23.7670084 178.533602,24.2074536 178.132693,24.77745 C177.731783,25.3474465 177.531331,26.0815219 177.531331,26.9796981 C177.531331,27.5669672 177.609768,28.0678657 177.766646,28.4824086 C177.923524,28.8969515 178.254705,29.2683072 178.760201,29.596487 C179.265696,29.9246668 179.980351,30.2442055 180.904187,30.5551127 C181.828023,30.8660198 183.056881,31.1769223 184.590797,31.4878295 Z M210.5278,31.4878295 C211.678237,31.7296462 212.846088,31.9973678 214.031387,32.2910023 C215.216686,32.5846369 216.288668,33.0164459 217.247366,33.5864424 C218.206064,34.1564389 218.981726,34.9077866 219.574375,35.8405081 C220.167025,36.7732296 220.463345,37.9650225 220.463345,39.4159226 C220.463345,41.90318 219.539523,43.8549568 217.691851,45.2713116 C215.844179,46.6876665 213.334171,47.3958333 210.161753,47.3958333 C206.954473,47.3958333 204.427035,46.6876665 202.579363,45.2713116 C200.731691,43.8549568 199.807869,41.90318 199.807869,39.4159226 L203.468333,39.4159226 C203.468333,40.3140989 203.668785,41.0481742 204.069695,41.6181707 C204.470605,42.1881672 204.993523,42.6372486 205.638465,42.9654284 C206.283408,43.2936081 207.006778,43.5181488 207.808598,43.6390572 C208.610418,43.7599655 209.394795,43.8204188 210.161753,43.8204188 C210.928711,43.8204188 211.704373,43.7599655 212.488763,43.6390572 C213.273152,43.5181488 213.987806,43.2936081 214.632749,42.9654284 C215.277691,42.6372486 215.809324,42.1881672 216.227665,41.6181707 C216.646006,41.0481742 216.855173,40.3140989 216.855173,39.4159226 C216.855173,38.7941083 216.759305,38.2759374 216.567565,37.8613946 C216.375826,37.4468517 216.018498,37.0754959 215.495572,36.7473161 C214.972646,36.4191363 214.249276,36.1255062 213.32544,35.8664169 C212.401604,35.6073276 211.207607,35.3223336 209.743414,35.0114264 C208.592977,34.7696098 207.425126,34.493252 206.239827,34.1823448 C205.054528,33.8714376 203.982546,33.4309924 203.023848,32.860996 C202.06515,32.2909995 201.289488,31.5396518 200.696839,30.6069303 C200.104189,29.6742088 199.807869,28.4651435 199.807869,26.9796981 C199.807869,24.4924408 200.731691,22.540664 202.579363,21.1243091 C204.427035,19.7079542 206.954473,18.9997874 210.161753,18.9997874 C213.334171,18.9997874 215.844179,19.7079542 217.691851,21.1243091 C219.539523,22.540664 220.463345,24.4924408 220.463345,26.9796981 L216.855173,26.9796981 C216.855173,26.0815219 216.646006,25.3474465 216.227665,24.77745 C215.809324,24.2074536 215.277691,23.7670084 214.632749,23.4561012 C213.987806,23.145194 213.273152,22.9292895 212.488763,22.8083812 C211.704373,22.6874728 210.928711,22.6270196 210.161753,22.6270196 C209.394795,22.6270196 208.610418,22.6874728 207.808598,22.8083812 C207.006778,22.9292895 206.283408,23.145194 205.638465,23.4561012 C204.993523,23.7670084 204.470605,24.2074536 204.069695,24.77745 C203.668785,25.3474465 203.468333,26.0815219 203.468333,26.9796981 C203.468333,27.5669672 203.546771,28.0678657 203.703649,28.4824086 C203.860526,28.8969515 204.191708,29.2683072 204.697203,29.596487 C205.202698,29.9246668 205.917353,30.2442055 206.841189,30.5551127 C207.765025,30.8660198 208.993883,31.1769223 210.5278,31.4878295 Z M238.713373,47.3958333 C235.018029,47.3958333 232.141979,46.1522233 230.085136,43.664966 C228.028294,41.1777087 226.999888,37.6886917 226.999888,33.1978104 L226.999888,19.569781 L230.660352,19.569781 L230.660352,33.1978104 C230.660352,34.1996224 230.747505,35.3050535 230.921814,36.5141369 C231.096122,37.7232203 231.47088,38.8718324 232.046099,39.9600074 C232.621318,41.0481825 233.440556,41.9549815 234.503839,42.6804315 C235.567122,43.4058816 236.970286,43.7686012 238.713373,43.7686012 C240.45646,43.7686012 241.859624,43.4058816 242.922907,42.6804315 C243.98619,41.9549815 244.805428,41.0481825 245.380647,39.9600074 C245.955866,38.8718324 246.330624,37.7232203 246.504932,36.5141369 C246.679241,35.3050535 246.766394,34.1996224 246.766394,33.1978104 L246.766394,19.569781 L250.426858,19.569781 L250.426858,33.1978104 C250.426858,37.6886917 249.398452,41.1777087 247.34161,43.664966 C245.284767,46.1522233 242.408717,47.3958333 238.713373,47.3958333 Z M263.133897,47.1367453 L259.473433,47.1367453 L259.473433,6.77083333 L263.133897,6.77083333 L263.133897,47.1367453 Z M285.671898,18.9997874 C290.203923,18.9997874 293.724906,20.2520336 296.234951,22.7565636 C298.744996,25.2610935 300,28.7414743 300,33.1978104 L300,39.4159226 C300,40.0031917 299.860555,40.7545394 299.581661,41.6699883 C299.302767,42.5854372 298.66655,43.4663276 297.672991,44.312686 C296.679431,45.1590444 295.241406,45.8844836 293.358872,46.4890253 C291.476338,47.093567 288.914039,47.3958333 285.671898,47.3958333 C282.429756,47.3958333 279.867457,47.093567 277.984923,46.4890253 C276.102389,45.8844836 274.664364,45.1590444 273.670805,44.312686 C272.677245,43.4663276 272.041028,42.5854372 271.762134,41.6699883 C271.48324,40.7545394 271.343795,40.0031917 271.343795,39.4159226 C271.343795,37.3086629 271.674977,35.6505162 272.33735,34.4414328 C272.999723,33.2323494 273.888684,32.3255504 275.004259,31.7210087 C276.119835,31.116467 277.435846,30.7278389 278.952331,30.5551127 C280.468817,30.3823865 282.098579,30.2960247 283.841666,30.2960247 L296.078074,30.2960247 C295.59001,27.8087673 294.474451,25.9088076 292.731364,24.5960884 C290.988277,23.2833693 288.635145,22.6270196 285.671898,22.6270196 C282.673788,22.6270196 280.250934,23.3351864 278.403262,24.7515412 L276.154691,21.9015731 C278.629874,19.9670396 281.802245,18.9997874 285.671898,18.9997874 Z M296.339536,33.9232568 L285.671898,33.9232568 C283.336161,33.9232568 281.462371,33.9837101 280.050471,34.1046184 C278.63857,34.2255268 277.557873,34.475976 276.808345,34.8559736 C276.058818,35.2359713 275.570761,35.7886868 275.34416,36.5141369 C275.117558,37.239587 275.004259,38.2068392 275.004259,39.4159226 C275.004259,40.2104632 275.31801,40.8840852 275.945522,41.4368091 C276.573033,41.989533 277.392271,42.4386143 278.403262,42.7840668 C279.414252,43.1295192 280.555957,43.3799684 281.82841,43.535422 C283.100864,43.6908756 284.382013,43.7686012 285.671898,43.7686012 C286.961782,43.7686012 288.242932,43.6908756 289.515385,43.535422 C290.787838,43.3799684 291.929543,43.1295192 292.940534,42.7840668 C293.951524,42.4386143 294.770762,41.989533 295.398274,41.4368091 C296.025785,40.8840852 296.339536,40.2104632 296.339536,39.4159226 L296.339536,33.9232568 Z"/>
    <use fill="#56D3A2" xlink:href="#crassula-logo-horizontal-normal-a"/>
    <path fill="#FFF" d="M48.6980706,62.1435874 C48.055958,62.4144399 47.397876,62.665725 46.7238245,62.8974426 L46.7238245,55.7272123 C45.2046389,55.3030994 44.0914963,53.92443 44.0914963,52.2891412 C44.0914963,50.3160763 45.7119798,48.7165912 47.7109475,48.7165912 C49.7099152,48.7165912 51.3303987,50.3160763 51.3303987,52.2891412 C51.3303987,53.92443 50.2172561,55.3030994 48.6980706,55.7272123 L48.6980706,62.1435874 Z M41.5587817,64.2342603 C40.9123773,64.3522924 40.2541485,64.4558364 39.5840951,64.5448924 L39.6091151,46.8239025 L42.7753323,44.2909209 L42.7753323,34.2919122 C41.2561467,33.8677993 40.1430041,32.4891299 40.1430041,30.8538411 C40.1430041,28.8807762 41.7634876,27.2812911 43.7624553,27.2812911 C45.761423,27.2812911 47.3819065,28.8807762 47.3819065,30.8538411 C47.3819065,32.4891299 46.2687639,33.8677993 44.7495784,34.2919122 L44.7495784,45.2198652 L41.58205,47.7538957 L41.5587817,64.2342603 Z M34.2202765,64.943696 C33.840347,64.9515353 33.4572184,64.9554549 33.0708906,64.9554549 C33.043078,64.9554549 33.0152798,64.9554332 32.9874962,64.9553898 C32.9597125,64.9554332 32.9319143,64.9554549 32.9041017,64.9554549 C32.6836998,64.9554549 32.4643391,64.9541792 32.2460197,64.9516277 L32.2460197,35.5910213 C30.7268342,35.1669084 29.6136916,33.788239 29.6136916,32.1529502 C29.6136916,30.1798853 31.2341751,28.5804002 33.2331427,28.5804002 C35.2321104,28.5804002 36.8525939,30.1798853 36.8525939,32.1529502 C36.8525939,33.788239 35.7394513,35.1669084 34.2202658,35.5910213 L34.2202658,64.9436962 Z M26.8822786,64.607347 C26.2124447,64.5260689 25.5542272,64.430558 24.907626,64.320814 L24.8842355,47.7538957 L21.7167071,45.2198652 L21.7167071,34.2919122 C20.1975216,33.8677993 19.084379,32.4891299 19.084379,30.8538411 C19.084379,28.8807762 20.7048625,27.2812911 22.7038302,27.2812911 C24.7027979,27.2812911 26.3232814,28.8807762 26.3232814,30.8538411 C26.3232814,32.4891299 25.2101388,33.8677993 23.6909532,34.2919122 L23.6909532,44.2909209 L26.8571704,46.8239025 L26.8822786,64.607347 Z M19.742461,63.0619468 C19.0687863,62.8423213 18.4107043,62.6035902 17.7682149,62.3457534 L17.7682149,55.7272123 C16.2490294,55.3030994 15.1358868,53.92443 15.1358868,52.2891412 C15.1358868,50.3160763 16.7563703,48.7165912 18.755338,48.7165912 C20.7543057,48.7165912 22.3747892,50.3160763 22.3747892,52.2891412 C22.3747892,53.92443 21.2616466,55.3030994 19.742461,55.7272123 L19.742461,63.0619468 Z M47.7109475,53.7181612 C48.5105346,53.7181612 49.158728,53.0783672 49.158728,52.2891412 C49.158728,51.4999153 48.5105346,50.8601212 47.7109475,50.8601212 C46.9113604,50.8601212 46.263167,51.4999153 46.263167,52.2891412 C46.263167,53.0783672 46.9113604,53.7181612 47.7109475,53.7181612 Z M43.7624553,32.2828611 C44.5620424,32.2828611 45.2102358,31.643067 45.2102358,30.8538411 C45.2102358,30.0646151 44.5620424,29.4248211 43.7624553,29.4248211 C42.9628682,29.4248211 42.3146748,30.0646151 42.3146748,30.8538411 C42.3146748,31.643067 42.9628682,32.2828611 43.7624553,32.2828611 Z M33.2331427,33.5819702 C34.0327298,33.5819702 34.6809232,32.9421761 34.6809232,32.1529502 C34.6809232,31.3637242 34.0327298,30.7239302 33.2331427,30.7239302 C32.4335557,30.7239302 31.7853623,31.3637242 31.7853623,32.1529502 C31.7853623,32.9421761 32.4335557,33.5819702 33.2331427,33.5819702 Z M22.7038302,32.2828611 C23.5034173,32.2828611 24.1516107,31.643067 24.1516107,30.8538411 C24.1516107,30.0646151 23.5034173,29.4248211 22.7038302,29.4248211 C21.9042431,29.4248211 21.2560497,30.0646151 21.2560497,30.8538411 C21.2560497,31.643067 21.9042431,32.2828611 22.7038302,32.2828611 Z M18.755338,53.7181612 C19.5549251,53.7181612 20.2031185,53.0783672 20.2031185,52.2891412 C20.2031185,51.4999153 19.5549251,50.8601212 18.755338,50.8601212 C17.9557509,50.8601212 17.3075575,51.4999153 17.3075575,52.2891412 C17.3075575,53.0783672 17.9557509,53.7181612 18.755338,53.7181612 Z"/>
  </g>
</svg>
